# xmcd
#
# Track frame offsets: 
#        150
#        1142
#        24135
#        26330
#        53122
#        69702
#        91127
#        95202
#        134327
#        136325
#        156595
#        171047
#        176557
#        198617
#        220727
#        235260
#        261350
#        265797
#        294955
#        296640
#
# Disc length: 4440 seconds
#
# Revision: 1
# Processed by: cddbd v1.5.2PL0 Copyright (c) Steve Scherf et al.
# Submitted via: ExactAudioCopy v0.99pb4
#
DISCID=20115614
DTITLE=Garcia and Grisman - The Pizza Tapes
DYEAR=1993
DGENRE=Bluegrass
TTITLE0=Appetizer
TTITLE1=Man Of Constant Sorrow
TTITLE2=Appetizer (2)
TTITLE3=Louis Collins
TTITLE4=Shady Jam
TTITLE5=Shady Grove
TTITLE6=Always Late
TTITLE7=Guitar Space - Summertime
TTITLE8=Appetizer (3)
TTITLE9=Long Black Veil
TTITLE10=Rosalee McFall
TTITLE11=Appetizer (4)
TTITLE12=Drifting Too Far From The Shore
TTITLE13=Amazing Grace
TTITLE14=Little Sadie
TTITLE15=Knockin' On Heaven's Door
TTITLE16=Space Jam
TTITLE17=So What
TTITLE18=Appetizer (5)
TTITLE19=House Of The Rising Sun
EXTD=
EXTT0=
EXTT1=
EXTT2=
EXTT3=
EXTT4=
EXTT5=
EXTT6=
EXTT7=
EXTT8=
EXTT9=
EXTT10=
EXTT11=
EXTT12=
EXTT13=
EXTT14=
EXTT15=
EXTT16=
EXTT17=
EXTT18=
EXTT19=
PLAYORDER=
